<?xml version="1.0" encoding="UTF-8" standalone="no"?>
<!DOCTYPE svg PUBLIC "-//W3C//DTD SVG 1.1//EN" "http://www.w3.org/Graphics/SVG/1.1/DTD/svg11.dtd">
<!-- Created with Vectornator (http://vectornator.io/) -->
<svg height="100%" stroke-miterlimit="10" style="fill-rule:nonzero;clip-rule:evenodd;stroke-linecap:round;stroke-linejoin:round;" version="1.1" viewBox="0 0 128 128" width="100%" xml:space="preserve" xmlns="http://www.w3.org/2000/svg" xmlns:vectornator="http://vectornator.io" xmlns:xlink="http://www.w3.org/1999/xlink">
<defs/>
<g id="Katman-1" vectornator:layerName="Katman 1">
<path d="M64 126.017L48.8794 120.431L32.9913 117.709L22.6896 105.31L10.2913 95.0087L7.56901 79.1206L1.98253 64L7.56901 48.8794L10.2913 32.9913L22.6896 22.6896L32.9913 10.2913L48.8794 7.56901L64 1.98253L79.1206 7.56901L95.0087 10.2913L105.31 22.6896L117.709 32.9913L120.431 48.8794L126.017 64L120.431 79.1206L117.709 95.0087L105.31 105.31L95.0087 117.709L79.1206 120.431L64 126.017Z" fill="#6a9ba6" fill-rule="nonzero" opacity="1" stroke="none" vectornator:layerName="Yıldız 1"/>
<g opacity="1" vectornator:layerName="Info">
<path d="M27 41C25.8954 41 25 41.8954 25 43C25 44.1046 25.8954 45 27 45C28.1046 45 29 44.1046 29 43C29 41.8954 28.1046 41 27 41Z" fill="#2e578c" fill-rule="nonzero" opacity="1" stroke="none" vectornator:layerName="path"/>
<path d="M91 26C90.4477 26 90 26.4477 90 27C90 27.5523 90.4477 28 91 28C91.5523 28 92 27.5523 92 27C92 26.4477 91.5523 26 91 26Z" fill="#f29985" fill-rule="nonzero" opacity="1" stroke="none" vectornator:layerName="path"/>
<path d="M97 25C94.7909 25 93 26.7909 93 29C93 31.2091 94.7909 33 97 33C99.2091 33 101 31.2091 101 29C101 26.7909 99.2091 25 97 25Z" fill="#f29985" fill-rule="nonzero" opacity="1" stroke="none" vectornator:layerName="path"/>
<path d="M101 36C99.8954 36 99 36.8954 99 38C99 39.1046 99.8954 40 101 40C102.105 40 103 39.1046 103 38C103 36.8954 102.105 36 101 36Z" fill="#2e578c" fill-rule="nonzero" opacity="1" stroke="none" vectornator:layerName="path"/>
<path d="M95 88C93.8954 88 93 88.8954 93 90C93 91.1046 93.8954 92 95 92C96.1046 92 97 91.1046 97 90C97 88.8954 96.1046 88 95 88ZM29 73C26.7909 73 25 74.7909 25 77C25 79.2091 26.7909 81 29 81C31.2091 81 33 79.2091 33 77C33 74.7909 31.2091 73 29 73Z" fill="#f29985" fill-rule="nonzero" opacity="1" stroke="none" vectornator:layerName="path"/>
<path d="M39 99C37.8954 99 37 99.8954 37 101C37 102.105 37.8954 103 39 103C40.1046 103 41 102.105 41 101C41 99.8954 40.1046 99 39 99Z" fill="#2e578c" fill-rule="nonzero" opacity="1" stroke="none" vectornator:layerName="path"/>
<path d="M32.5 65C31.1193 65 30 66.1193 30 67.5C30 68.8807 31.1193 70 32.5 70C33.8807 70 35 68.8807 35 67.5C35 66.1193 33.8807 65 32.5 65Z" fill="#ffffff" fill-rule="nonzero" opacity="1" stroke="none" vectornator:layerName="path"/>
<path d="M35 80C34.4477 80 34 80.4477 34 81C34 81.5523 34.4477 82 35 82C35.5523 82 36 81.5523 36 81C36 80.4477 35.5523 80 35 80Z" fill="#f29985" fill-rule="nonzero" opacity="1" stroke="none" vectornator:layerName="path"/>
<path d="M94 47C93.4477 47 93 47.4477 93 48C93 48.5523 93.4477 49 94 49C94.5523 49 95 48.5523 95 48C95 47.4477 94.5523 47 94 47Z" fill="#ffffff" fill-rule="nonzero" opacity="1" stroke="none" vectornator:layerName="path"/>
<g opacity="1" vectornator:layerName="g">
<path d="M49 86.3C45 86.3 41.7 83 41.7 79L41.7 49C41.7 45 45 41.7 49 41.7L79 41.7C83 41.7 86.3 45 86.3 49L86.3 79C86.3 83 83 86.3 79 86.3L49 86.3Z" fill="#2e578c" fill-rule="nonzero" opacity="1" stroke="none" vectornator:layerName="path"/>
<path d="M79 42.4C82.6 42.4 85.6 45.4 85.6 49L85.6 79C85.6 82.6 82.6 85.6 79 85.6L49 85.6C45.4 85.6 42.4 82.6 42.4 79L42.4 49C42.4 45.4 45.4 42.4 49 42.4L79 42.4M79 41L49 41C44.6 41 41 44.6 41 49L41 79C41 83.4 44.6 87 49 87L79 87C83.4 87 87 83.4 87 79L87 49C87 44.6 83.4 41 79 41L79 41Z" fill="#2e3559" fill-rule="nonzero" opacity="1" stroke="none" vectornator:layerName="path"/>
</g>
<path d="M82.5 61.4C82.2 61.4 82 61.2 82 60.9L82 57C82 56.7 82.2 56.5 82.5 56.5C82.8 56.5 83 56.7 83 57L83 60.9C83 61.2 82.8 61.4 82.5 61.4Z" fill="#2e3559" fill-rule="nonzero" opacity="1" stroke="none" vectornator:layerName="path"/>
<path d="M82.5 54.5C82.2 54.5 82 54.3 82 54L82 52C82 51.7 82.2 51.5 82.5 51.5C82.8 51.5 83 51.7 83 52L83 54C83 54.3 82.8 54.5 82.5 54.5Z" fill="#2e3559" fill-rule="nonzero" opacity="1" stroke="none" vectornator:layerName="path"/>
<path d="M78 83L50 83C47.2 83 45 80.8 45 78L45 50C45 47.2 47.2 45 50 45L75.4 45C75.7 45 75.9 45.2 75.9 45.5C75.9 45.8 75.7 46 75.4 46L50 46C47.8 46 46 47.8 46 50L46 78C46 80.2 47.8 82 50 82L78 82C80.2 82 82 80.2 82 78L82 63.6C82 63.3 82.2 63.1 82.5 63.1C82.8 63.1 83 63.3 83 63.6L83 78C83 80.8 80.8 83 78 83Z" fill="#2e3559" fill-rule="nonzero" opacity="1" stroke="none" vectornator:layerName="path"/>
<g opacity="1" vectornator:layerName="g">
<path d="M66.3 72.2C66.3 73.1 67.3 73.6 69.3 73.6L69.3 75.4L58.7 75.4L58.7 73.6C60.7 73.6 61.7 73.1 61.7 72.2L61.7 62.6C61.7 61.6 60.7 61.1 58.7 61.1L58.7 59.3L66.4 59.3L66.4 72.2L66.3 72.2ZM66.8 54.1C66.8 54.8 66.5 55.5 66 56C65.5 56.5 64.7 56.8 63.9 56.8C63.5 56.8 63.1 56.7 62.7 56.6C62.3 56.5 62 56.3 61.8 56C61.6 55.7 61.3 55.5 61.2 55.1C61 54.8 61 54.4 61 54C61 53.2 61.3 52.6 61.9 52.1C62.5 51.6 63.2 51.3 64 51.3C64.8 51.3 65.5 51.6 66.1 52.1C66.5 52.7 66.8 53.3 66.8 54.1Z" fill="#fdfcee" fill-rule="nonzero" opacity="1" stroke="none" vectornator:layerName="path"/>
<path d="M69.8 76L58.2 76L58.2 73.2L58.7 73.2C59.8 73.2 61.2 73 61.2 72.3L61.2 62.7C61.2 61.9 59.9 61.7 58.7 61.7L58.2 61.7L58.2 58.9L66.9 58.9L66.9 72.3C66.9 72.5 66.9 72.6 67 72.7C67.2 72.9 67.7 73.2 69.4 73.2L69.9 73.2L69.9 76L69.8 76ZM59.2 75L68.9 75L68.9 74.2C67.6 74.1 66.8 73.9 66.3 73.4C66 73.1 65.9 72.7 65.9 72.3L65.9 59.9L59.2 59.9L59.2 60.7C61.2 60.8 62.2 61.4 62.2 62.6L62.2 72.2C62.2 73.4 61.2 74 59.2 74.1L59.2 75ZM63.8 57.3C63.3 57.3 62.9 57.2 62.5 57C62.1 56.8 61.7 56.6 61.4 56.3C61.1 56 60.8 55.7 60.7 55.3C60.5 54.9 60.4 54.5 60.4 54C60.4 53.1 60.8 52.3 61.4 51.7C62.1 51.1 62.9 50.8 63.8 50.8C64.7 50.8 65.5 51.1 66.2 51.7C66.9 52.3 67.2 53.1 67.2 54C67.2 54.9 66.9 55.6 66.2 56.3C65.6 57 64.8 57.3 63.8 57.3ZM63.8 51.9C63.1 51.9 62.5 52.1 62 52.5C61.5 52.9 61.3 53.4 61.3 54C61.3 54.3 61.4 54.6 61.5 54.8C61.6 55.1 61.8 55.3 62 55.5C62.2 55.7 62.5 55.9 62.8 56C63.1 56.1 63.4 56.2 63.8 56.2C64.5 56.2 65.1 56 65.5 55.5C66 55.1 66.2 54.6 66.2 54C66.2 53.4 66 52.9 65.5 52.5C65.1 52.1 64.5 51.9 63.8 51.9Z" fill="#2e3559" fill-rule="nonzero" opacity="1" stroke="none" vectornator:layerName="path"/>
</g>
</g>
</g>
</svg>
