<?xml version="1.0" encoding="UTF-8" standalone="no"?>
<!DOCTYPE svg PUBLIC "-//W3C//DTD SVG 1.1//EN" "http://www.w3.org/Graphics/SVG/1.1/DTD/svg11.dtd">
<!-- Created with Vectornator (http://vectornator.io/) -->
<svg height="100%" stroke-miterlimit="10" style="fill-rule:nonzero;clip-rule:evenodd;stroke-linecap:round;stroke-linejoin:round;" version="1.1" viewBox="0 0 128 128" width="100%" xml:space="preserve" xmlns="http://www.w3.org/2000/svg" xmlns:vectornator="http://vectornator.io" xmlns:xlink="http://www.w3.org/1999/xlink">
<defs/>
<g id="Frame" vectornator:layerName="Frame">
<path d="M64 126.017L48.8794 120.431L32.9913 117.709L22.6896 105.31L10.2913 95.0087L7.56901 79.1206L1.98253 64L7.56901 48.8794L10.2913 32.9913L22.6896 22.6896L32.9913 10.2913L48.8794 7.56901L64 1.98253L79.1206 7.56901L95.0087 10.2913L105.31 22.6896L117.709 32.9913L120.431 48.8794L126.017 64L120.431 79.1206L117.709 95.0087L105.31 105.31L95.0087 117.709L79.1206 120.431L64 126.017Z" fill="#6a9ba6" fill-rule="nonzero" opacity="1" stroke="none" vectornator:layerName="Yıldız 1"/>
</g>
<g id="Katman-1" vectornator:layerName="Katman 1">
<g opacity="1" vectornator:layerName="Telescope">
<path d="M61.5488 35.9723L91.1233 25.2086L101.805 54.5573L72.2303 65.321L61.5488 35.9723Z" fill="#ffffff" fill-rule="nonzero" opacity="1" stroke="none" vectornator:layerName="path"/>
<path d="M39.5619 52.3033L64.2449 43.3199L69.5857 57.9942L44.9027 66.9776L39.5619 52.3033Z" fill="#ffffff" fill-rule="nonzero" opacity="1" stroke="none" vectornator:layerName="path"/>
<path d="M102.705 53.6618L101.824 54.5428L91.1729 25.2327L92.3742 25.3928C98.7808 26.1136 104.146 30.3579 106.308 36.3641L106.308 36.3641C108.551 42.2902 107.109 49.0171 102.705 53.6618Z" fill="#2e578c" fill-rule="nonzero" opacity="1" stroke="none" vectornator:layerName="path"/>
<path d="M106.389 38.6865C105.428 38.6865 104.467 38.0458 104.146 37.0848C102.304 31.8795 97.6596 28.3559 92.1339 27.7152C90.8526 27.5551 89.8916 26.3538 90.0518 25.0725C90.212 23.7912 91.4132 22.8302 92.6945 22.9904C100.062 23.7912 106.148 28.5961 108.631 35.4832C109.111 36.7645 108.471 38.1259 107.189 38.5263C106.949 38.6865 106.629 38.6865 106.389 38.6865Z" fill="#2e578c" fill-rule="nonzero" opacity="1" stroke="none" vectornator:layerName="path"/>
<path d="M101.824 56.9452C101.263 56.9452 100.623 56.705 100.142 56.3046C99.1812 55.4237 99.1812 53.9021 100.062 52.9411L100.943 52.0602C104.787 48.0561 105.988 42.3703 104.066 37.1649C103.185 34.6824 101.584 32.4401 99.4214 30.7584C98.3803 29.9575 98.2202 28.436 99.021 27.3949C99.8218 26.3538 101.343 26.1937 102.384 26.9945C105.187 29.2368 107.35 32.1197 108.551 35.4832C111.033 42.3703 109.432 49.9781 104.387 55.3436L103.506 56.2245C103.105 56.705 102.465 56.9452 101.824 56.9452Z" fill="#2e3559" fill-rule="nonzero" opacity="1" stroke="none" vectornator:layerName="path"/>
<path d="M69.4707 105.155C68.5097 105.155 67.5487 104.594 67.2284 103.633L57.8588 78.5674C56.8978 75.9247 53.9347 74.5633 51.292 75.5243C50.0107 76.0048 49.0497 76.8857 48.4091 78.0869L35.5959 103.793C35.0354 104.995 33.5939 105.475 32.3926 104.834C31.1914 104.194 30.7109 102.832 31.3516 101.631L44.1647 75.9247C45.2859 73.6023 47.2879 71.9206 49.6904 71.0397C54.8156 69.1978 60.5015 71.8405 62.4235 76.8857L71.7931 101.951C72.2736 103.233 71.6329 104.594 70.3516 105.075C70.0313 105.075 69.791 105.155 69.4707 105.155ZM24.3043 74.0828C23.3434 74.0828 22.3824 73.4421 22.062 72.4812L18.4583 62.7111C17.9779 61.4298 18.6185 60.0684 19.8998 59.668C21.1811 59.1875 22.5425 59.8282 22.9429 61.1095L26.4666 70.8795C26.9471 72.1608 26.3064 73.5222 25.0251 73.9226C24.8649 74.0828 24.6247 74.0828 24.3043 74.0828ZM104.066 53.7419L93.4152 24.4319C93.175 23.8713 92.7746 23.3107 92.1339 23.0705C91.5734 22.8302 90.9327 22.7501 90.292 22.9904L60.7417 33.7214C59.4604 34.2019 58.8198 35.5633 59.3002 36.7645L61.1421 41.8097L38.7191 49.9781C38.1586 50.2183 37.598 50.6187 37.3577 51.2594C37.1175 51.82 37.0374 52.4606 37.2777 53.1013L39.1195 58.1465L28.6288 62.0705C27.3475 62.551 26.7068 63.9124 27.1873 65.1136C27.5076 66.0746 28.4686 66.7152 29.4296 66.7152C29.6698 66.7152 29.9902 66.6352 30.2304 66.5551L40.8013 62.7111L42.6432 67.7563C42.9635 68.7173 43.9245 69.358 44.8855 69.358C45.1257 69.358 45.446 69.2779 45.6863 69.1978L68.1093 61.0294L69.9512 66.0746C70.2715 67.0356 71.2325 67.6762 72.1935 67.6762C72.4337 67.6762 72.754 67.5961 72.9943 67.5161L102.545 56.7851C103.105 56.5448 103.666 56.1444 103.906 55.5037C104.306 55.0232 104.306 54.3826 104.066 53.7419ZM46.3269 63.9124L44.485 58.8672L44.485 58.8672L44.485 58.8672L42.6432 53.822L62.8239 46.4545L66.5076 56.6249L46.3269 63.9124ZM73.715 62.2306L64.6658 37.4052L89.7315 28.2758L98.7808 53.1013L73.715 62.2306Z" fill="#444b54" fill-rule="nonzero" opacity="1" stroke="none" vectornator:layerName="path"/>
</g>
</g>
</svg>
