<?xml version="1.0" encoding="UTF-8" standalone="no"?>
<!DOCTYPE svg PUBLIC "-//W3C//DTD SVG 1.1//EN" "http://www.w3.org/Graphics/SVG/1.1/DTD/svg11.dtd">
<!-- Created with Vectornator (http://vectornator.io/) -->
<svg height="100%" stroke-miterlimit="10" style="fill-rule:nonzero;clip-rule:evenodd;stroke-linecap:round;stroke-linejoin:round;" version="1.1" viewBox="0 0 841.995 595.35" width="100%" xml:space="preserve" xmlns="http://www.w3.org/2000/svg" xmlns:vectornator="http://vectornator.io" xmlns:xlink="http://www.w3.org/1999/xlink">
<defs/>
<path d="M0 0L841.995 0L841.995 595.35L0 595.35L0 0Z" fill="#ffffff" fill-rule="nonzero" opacity="1" stroke="none"/>
<clipPath id="ArtboardFrame">
<rect height="595.35" width="841.995" x="0" y="0"/>
</clipPath>
<g clip-path="url(#ArtboardFrame)" id="Katman-1" vectornator:layerName="Katman 1">
<path d="M1.30214e-13-4.98837e-14L841.995-4.98837e-14L841.995 595.35L1.30214e-13 595.35L1.30214e-13-4.98837e-14Z" fill="#2e578c" fill-rule="nonzero" opacity="1" stroke="none" vectornator:layerName="Dikdörtgen 1"/>
<g opacity="1" vectornator:layerName="Planet on the Dark Side">
<path d="M507.047 398.894C468.798 388.105 428.94 410.74 418.022 449.449C407.103 488.159 429.259 528.285 467.507 539.073C505.756 549.862 545.614 527.228 556.532 488.518C567.451 449.809 545.295 409.683 507.047 398.894Z" fill="#c7d7e2" fill-rule="nonzero" opacity="1" stroke="none" vectornator:layerName="path"/>
<path d="M506.811 399.728C503.14 398.693 499.375 397.991 495.729 397.503C527.432 412.21 544.487 448.188 534.603 483.233C524.718 518.278 491.209 539.994 456.66 536.014C460.023 537.503 463.6 538.872 467.272 539.908C505.487 550.687 545.376 528.069 556.297 489.352C567.217 450.636 545.027 410.508 506.811 399.728Z" fill="#ffffff" fill-rule="nonzero" opacity="1" stroke="none" vectornator:layerName="path"/>
<path d="M465.86 544.914C424.807 533.335 401.106 490.258 412.78 448.871C424.454 407.485 467.338 383.19 508.224 394.722C549.109 406.254 572.977 449.378 561.303 490.765C549.63 532.151 506.912 556.494 465.86 544.914ZM505.399 404.735C469.854 394.709 432.913 415.816 422.793 451.696C412.673 487.575 433.305 524.922 468.684 534.901C504.063 544.88 541.17 523.82 551.291 487.94C561.411 452.061 540.945 414.761 505.399 404.735Z" fill="#454b54" fill-rule="nonzero" opacity="1" stroke="none" vectornator:layerName="path"/>
<path d="M501.602 521.667C490.755 518.607 479.356 514.311 468.286 508.847C445.933 498.038 426.571 484.289 414.042 469.946C400.414 454.391 395.767 439.569 401.231 428.499C405.938 418.837 417.209 413.369 433.807 412.646C436.713 412.564 439.126 414.867 439.254 417.605C439.336 420.511 437.034 422.924 434.295 423.052C421.745 423.476 413.396 426.886 410.44 432.898C406.986 440.031 411.12 450.925 421.783 462.941C433.499 476.334 451.62 489.373 472.732 499.471C493.845 509.57 515.158 515.762 532.929 516.631C548.937 517.363 560.024 513.824 563.477 506.691C566.528 500.345 563.614 490.876 554.979 479.973C553.28 477.692 553.627 474.547 555.788 472.634C558.069 470.936 561.214 471.282 563.126 473.443C574.273 487.577 577.7 500.975 572.685 511.09C567.388 522.207 552.997 527.876 532.201 526.875C522.912 526.596 512.45 524.726 501.602 521.667Z" fill="#454b54" fill-rule="nonzero" opacity="1" stroke="none" vectornator:layerName="path"/>
<path d="M473.644 466.219C466.732 464.27 459.548 468.293 457.598 475.205C455.648 482.117 459.671 489.302 466.584 491.251C473.496 493.201 480.68 489.178 482.63 482.266C484.58 475.353 480.557 468.169 473.644 466.219ZM495.215 421.679C491.529 420.64 487.697 422.785 486.657 426.472C485.617 430.158 487.763 433.99 491.449 435.03C495.136 436.07 498.968 433.924 500.007 430.237C501.047 426.551 498.902 422.719 495.215 421.679ZM536.806 465.839C531.276 464.279 525.529 467.498 523.969 473.028C522.41 478.558 525.628 484.305 531.158 485.865C536.688 487.425 542.435 484.206 543.995 478.676C545.555 473.146 542.336 467.399 536.806 465.839Z" fill="#ffffff" fill-rule="nonzero" opacity="1" stroke="none" vectornator:layerName="path"/>
<path d="M444.736 390.506C443.401 390.13 442.207 389.253 441.655 388.016C441.103 386.779 440.765 385.423 441.142 384.088C441.518 382.753 442.396 381.559 443.632 381.007C445.986 379.689 449.323 380.631 450.641 382.984C451.36 384.268 451.531 385.577 451.155 386.912C450.778 388.247 449.901 389.441 448.664 389.993C447.595 390.592 446.071 390.883 444.736 390.506Z" fill="#454b54" fill-rule="nonzero" opacity="1" stroke="none" vectornator:layerName="path"/>
<path d="M558.213 563.037C556.878 562.66 555.684 561.783 555.132 560.546C554.58 559.31 554.242 557.953 554.619 556.618C554.995 555.283 555.873 554.089 557.109 553.537C559.463 552.22 562.8 553.161 564.118 555.514C564.837 556.798 565.008 558.107 564.632 559.443C564.255 560.778 563.378 561.971 562.141 562.523C560.905 563.075 559.548 563.413 558.213 563.037Z" fill="#454b54" fill-rule="nonzero" opacity="1" stroke="none" vectornator:layerName="path"/>
</g>
<g opacity="1" vectornator:layerName="Mars Planet">
<path d="M266.451 458.513L326.778 458.513C326.78 458.508 326.783 458.505 326.785 458.5C331.294 451.253 333.902 442.699 333.902 433.531C333.902 418.277 326.678 404.742 315.498 396.058L257.376 396.058C246.196 404.742 238.971 418.277 238.971 433.531C238.971 434.358 239.009 435.177 239.051 435.992L266.451 458.513Z" fill="#ff7043" fill-rule="nonzero" opacity="1" stroke="none" vectornator:layerName="path"/>
<path d="M260.905 473.502L311.968 473.502C317.954 469.67 323.023 464.549 326.778 458.513C325.161 452.208 319.053 448.52 313.917 448.52C306.422 448.52 301.426 453.517 291.433 453.517C268.95 453.517 269.104 433.531 248.964 433.531C244.525 433.531 241.535 434.755 239.051 435.992C239.861 451.768 248.377 465.483 260.905 473.502Z" fill="#a1887f" fill-rule="nonzero" opacity="1" stroke="none" vectornator:layerName="path"/>
<path d="M286.437 386.066C275.475 386.066 265.41 389.818 257.376 396.058L315.498 396.058C307.464 389.818 297.399 386.066 286.437 386.066ZM311.968 473.502L260.905 473.502C268.283 478.224 277.029 480.997 286.437 480.997C295.845 480.997 304.591 478.224 311.968 473.502Z" fill="#bcaaa4" fill-rule="nonzero" opacity="1" stroke="none" vectornator:layerName="path"/>
</g>
<g opacity="1" vectornator:layerName="Jupiter Planet">
<path d="M709.896 211.094L638.371 211.094C648.704 217.708 660.955 221.592 674.134 221.592C687.312 221.592 699.563 217.708 709.896 211.094Z" fill="#ffcc80" fill-rule="nonzero" opacity="1" stroke="none" vectornator:layerName="path"/>
<path d="M629.297 204.095C632.114 206.678 635.141 209.026 638.371 211.094L709.896 211.094C713.129 209.026 716.153 206.678 718.97 204.095L629.297 204.095Z" fill="#ffa726" fill-rule="nonzero" opacity="1" stroke="none" vectornator:layerName="path"/>
<path d="M619.989 193.598C622.715 197.426 625.84 200.932 629.297 204.095L718.973 204.095C722.431 200.932 725.555 197.426 728.281 193.598L619.989 193.598Z" fill="#ffcc80" fill-rule="nonzero" opacity="1" stroke="none" vectornator:layerName="path"/>
<path d="M612.364 179.601C614.349 184.594 616.913 189.283 619.986 193.598L728.278 193.598C731.35 189.283 733.919 184.594 735.899 179.601L612.364 179.601Z" fill="#ffccbc" fill-rule="nonzero" opacity="1" stroke="none" vectornator:layerName="path"/>
<path d="M735.91 179.601C736.795 177.322 737.565 174.988 738.216 172.602L670.634 172.602L670.634 179.601L735.91 179.601Z" fill="#ff8a65" fill-rule="nonzero" opacity="1" stroke="none" vectornator:layerName="path"/>
<path d="M738.212 172.602C738.828 170.313 739.332 167.983 739.713 165.603L608.554 165.603C608.932 167.983 609.436 170.313 610.055 172.602L738.212 172.602Z" fill="#d84315" fill-rule="nonzero" opacity="1" stroke="none" vectornator:layerName="path"/>
<path d="M653.138 165.603C636.079 165.603 629.518 172.602 625.581 172.602C622.663 172.602 614.226 172.602 610.051 172.602C610.702 174.988 611.462 177.326 612.364 179.601L639.141 179.601L652.701 193.598C667.135 193.598 677.633 188.349 677.633 179.601C677.633 177.851 675.883 165.603 653.138 165.603Z" fill="#f4511e" fill-rule="nonzero" opacity="1" stroke="none" vectornator:layerName="path"/>
<path d="M653.138 172.602C643.475 172.602 635.642 177.302 635.642 183.1C635.642 188.898 643.475 193.598 653.138 193.598C662.801 193.598 670.634 188.898 670.634 183.1C670.634 177.302 662.801 172.602 653.138 172.602Z" fill="#ff8a65" fill-rule="nonzero" opacity="1" stroke="none" vectornator:layerName="path"/>
<path d="M653.138 179.601C649.273 179.601 646.139 181.167 646.139 183.1C646.139 185.032 649.273 186.599 653.138 186.599C657.003 186.599 660.136 185.032 660.136 183.1C660.136 181.167 657.003 179.601 653.138 179.601Z" fill="#f4511e" fill-rule="nonzero" opacity="1" stroke="none" vectornator:layerName="path"/>
<path d="M607.647 155.106C607.647 158.685 608.011 162.174 608.554 165.603L739.71 165.603C740.256 162.174 740.62 158.685 740.62 155.106C740.62 153.923 740.504 152.772 740.445 151.606L607.822 151.606C607.763 152.772 607.647 153.923 607.647 155.106Z" fill="#ffa726" fill-rule="nonzero" opacity="1" stroke="none" vectornator:layerName="path"/>
<path d="M740.522 151.606C740.329 148.027 739.846 144.52 739.115 141.109L609.152 141.109C608.421 144.52 607.938 148.027 607.745 151.606L740.522 151.606Z" fill="#e65100" fill-rule="nonzero" opacity="1" stroke="none" vectornator:layerName="path"/>
<path d="M612.455 130.611C611.105 133.995 609.929 137.473 609.152 141.109L739.115 141.109C738.335 137.473 737.162 133.995 735.812 130.611L612.455 130.611Z" fill="#ffccbc" fill-rule="nonzero" opacity="1" stroke="none" vectornator:layerName="path"/>
<path d="M735.903 130.611C734.951 128.214 733.905 125.862 732.69 123.612L615.577 123.612C614.363 125.862 613.316 128.214 612.364 130.611L735.903 130.611Z" fill="#ffab91" fill-rule="nonzero" opacity="1" stroke="none" vectornator:layerName="path"/>
<path d="M725.66 113.114L622.607 113.114C619.951 116.369 617.62 119.889 615.615 123.612L732.655 123.612C730.65 119.889 728.316 116.369 725.66 113.114Z" fill="#ffccbc" fill-rule="nonzero" opacity="1" stroke="none" vectornator:layerName="path"/>
<path d="M622.607 113.114L725.664 113.114C723.62 110.609 721.356 108.299 718.973 106.116L629.297 106.116C626.911 108.299 624.65 110.609 622.607 113.114Z" fill="#fb8c00" fill-rule="nonzero" opacity="1" stroke="none" vectornator:layerName="path"/>
<path d="M719.029 106.116C707.198 95.2646 691.451 88.6194 674.134 88.6194C656.816 88.6194 641.069 95.2646 629.238 106.116L719.029 106.116Z" fill="#ffcc80" fill-rule="nonzero" opacity="1" stroke="none" vectornator:layerName="path"/>
</g>
<g opacity="1" vectornator:layerName="Pluto Dwarf Planet">
<path d="M281.971 193.412L320.445 193.412L320.97 177.644C314.147 162.913 299.273 152.675 281.971 152.675C271.679 152.675 262.232 156.291 254.829 162.321L254.814 177.57L281.971 193.412Z" fill="#ffb74d" fill-rule="nonzero" opacity="1" stroke="none" vectornator:layerName="path"/>
<path d="M243.498 202.464L263.866 218.307L309.129 218.307L322.799 209.209C324.209 204.954 324.972 200.403 324.972 195.675C324.972 189.227 323.512 183.135 320.97 177.644C320.554 178.409 316.034 186.622 313.656 186.622C310.544 186.622 307.715 182.096 303.472 182.096C299.228 182.096 294.702 191.149 292.156 191.149C289.61 191.149 286.498 182.945 279.708 179.833C272.919 176.721 263.341 178.056 260.012 175.307C257.575 173.292 255.588 168.544 254.829 162.321C246.25 169.311 240.424 179.55 239.211 191.158L243.498 202.464Z" fill="#6d4c41" fill-rule="nonzero" opacity="1" stroke="none" vectornator:layerName="path"/>
<path d="M284.235 234.149L293.296 237.166C302.071 234.773 309.725 229.668 315.312 222.81C315.301 222.801 315.294 222.79 315.285 222.781C312.3 221.283 310.904 220.57 309.129 220.57C307.593 220.57 277.445 220.57 277.445 220.57L266.129 213.78C266.129 213.78 263.866 213.78 254.814 206.991C250.803 203.983 243.337 195.802 239.211 191.158L239.211 191.158C239.057 192.645 238.971 194.15 238.971 195.675C238.971 214.665 251.281 230.779 268.356 236.475L284.235 234.149Z" fill="#4e342e" fill-rule="nonzero" opacity="1" stroke="none" vectornator:layerName="path"/>
<path d="M313.176 204.732C301.577 204.732 297.814 211.517 297.814 211.517C297.814 211.517 293.287 197.938 281.971 197.938C266.129 197.938 266.129 213.78 266.129 213.78C266.129 213.78 265.466 220.147 271.317 225.757C273.555 227.902 275.182 229.622 275.182 231.886C275.182 234.088 272.095 235.674 268.356 236.475C272.631 237.912 277.21 238.675 281.971 238.675C285.896 238.675 289.691 238.155 293.296 237.166C293.296 235.529 293.287 233.814 293.287 233.051C293.287 228.206 300.629 228.378 302.34 226.791C304.101 225.159 304.603 220.568 309.129 220.568C310.904 220.568 312.327 221.31 315.312 222.81C318.567 218.809 321.14 214.21 322.797 209.209C321.586 207.473 318.334 204.732 313.176 204.732Z" fill="#ffcc80" fill-rule="nonzero" opacity="1" stroke="none" vectornator:layerName="path"/>
</g>
<g opacity="1" vectornator:layerName="Comet">
<path d="M783.067 66.4194L794.467 48.4194L778.467 59.0194L782.267 52.0194C782.267 52.0194 763.467 62.2194 758.067 67.8194C753.267 72.6194 753.267 80.2194 758.067 85.0194C762.867 89.8194 770.467 89.8194 775.267 85.0194C780.867 79.4194 789.267 64.2194 789.267 64.2194L783.067 66.4194Z" fill="#ff5722" fill-rule="nonzero" opacity="1" stroke="none" vectornator:layerName="path"/>
<path d="M777.167 70.8194L783.467 59.7194L772.067 66.8194L773.867 61.2194C773.867 61.2194 764.867 66.9194 760.867 70.8194C759.367 72.3194 758.467 74.3194 758.467 76.6194C758.467 81.1194 761.967 84.6194 766.467 84.6194C768.767 84.6194 770.767 83.6194 772.267 82.2194C775.267 79.2194 783.167 69.1194 783.167 69.1194L777.167 70.8194Z" fill="#ff9800" fill-rule="nonzero" opacity="1" stroke="none" vectornator:layerName="path"/>
<path d="M766.467 71.6194C763.667 71.6194 761.467 73.8194 761.467 76.6194C761.467 79.4194 763.667 81.6194 766.467 81.6194C769.267 81.6194 771.467 79.4194 771.467 76.6194C771.467 73.8194 769.267 71.6194 766.467 71.6194Z" fill="#ffc107" fill-rule="nonzero" opacity="1" stroke="none" vectornator:layerName="path"/>
<path d="M766.467 74.1194C765.067 74.1194 763.967 75.2194 763.967 76.6194C763.967 78.0194 765.067 79.1194 766.467 79.1194C767.867 79.1194 768.967 78.0194 768.967 76.6194C768.967 75.2194 767.867 74.1194 766.467 74.1194Z" fill="#fff9c4" fill-rule="nonzero" opacity="1" stroke="none" vectornator:layerName="path"/>
</g>
<g opacity="1" vectornator:layerName="Full Moon">
<path d="M116.393 72.8386C97.6155 72.8386 82.3932 88.0609 82.3932 106.839C82.3932 125.616 97.6155 140.839 116.393 140.839C135.171 140.839 150.393 125.616 150.393 106.839C150.393 88.0609 135.171 72.8386 116.393 72.8386Z" fill="#fef6aa" fill-rule="nonzero" opacity="1" stroke="none" vectornator:layerName="path"/>
<path d="M137.258 79.3676L135.614 78.1166C140.768 84.0766 143.893 91.8406 143.893 100.339C143.893 100.673 143.888 101.007 143.879 101.339L143.368 101.324C143.368 101.324 143.355 101.504 143.322 101.775C143.285 102.622 143.22 103.467 143.12 104.309L143.661 104.339C143.617 104.715 143.567 105.09 143.51 105.462L143.025 105.264L142.671 107.236L143.169 107.353C143.135 107.516 143.099 107.679 143.063 107.842C142.948 108.354 142.821 108.861 142.683 109.363L142.194 109.207L141.597 111.177L142.06 111.378C141.325 113.519 140.383 115.564 139.257 117.488L138.906 117.088L138.809 117.226C137.838 118.896 136.715 120.496 135.437 122.003L135.429 122.014L135.831 122.322C129.594 129.674 120.288 134.339 109.893 134.339C101.394 134.339 93.6312 131.214 87.6702 126.059L88.9222 127.704C95.5142 136.369 105.527 141.339 116.393 141.339C135.416 141.339 150.893 125.862 150.893 106.839C150.893 95.9716 145.923 85.9596 137.258 79.3676Z" fill="#f9e65c" fill-rule="nonzero" opacity="1" stroke="none" vectornator:layerName="path"/>
<path d="M116.393 141.839C97.0942 141.839 81.3932 126.138 81.3932 106.839C81.3932 87.5396 97.0942 71.8386 116.393 71.8386C135.692 71.8386 151.393 87.5396 151.393 106.839C151.393 126.138 135.692 141.839 116.393 141.839ZM116.393 73.8386C98.1972 73.8386 83.3932 88.6426 83.3932 106.839C83.3932 125.035 98.1972 139.839 116.393 139.839C134.589 139.839 149.393 125.035 149.393 106.839C149.393 88.6426 134.589 73.8386 116.393 73.8386Z" fill="#1f212b" fill-rule="nonzero" opacity="1" stroke="none" vectornator:layerName="path"/>
<path d="M109.859 134.806C102.533 134.806 95.1832 132.497 89.0172 127.798C88.7972 127.631 88.7542 127.317 88.9222 127.097C89.0902 126.876 89.4052 126.835 89.6222 127.003C102.882 137.107 121.779 135.829 133.581 124.026C134.194 123.412 134.799 122.754 135.428 122.014C135.607 121.804 135.921 121.778 136.133 121.957C136.343 122.136 136.368 122.452 136.19 122.662C135.544 123.422 134.921 124.1 134.289 124.733C127.622 131.4 118.758 134.806 109.859 134.806ZM143.868 101.839C143.863 101.839 143.858 101.839 143.853 101.839C143.578 101.831 143.36 101.601 143.368 101.324C143.59 93.6706 141.172 86.1226 136.558 80.0686C136.39 79.8486 136.433 79.5346 136.653 79.3676C136.87 79.2006 137.185 79.2416 137.353 79.4616C142.105 85.6976 144.595 93.4716 144.368 101.353C144.36 101.625 144.137 101.839 143.868 101.839ZM143.52 105.839C143.495 105.839 143.47 105.837 143.445 105.834C143.173 105.793 142.984 105.539 143.025 105.265C143.074 104.938 143.114 104.61 143.152 104.281C143.185 104.007 143.432 103.807 143.707 103.843C143.981 103.875 144.178 104.123 144.146 104.398C144.106 104.737 144.064 105.076 144.013 105.414C143.976 105.661 143.763 105.839 143.52 105.839ZM142.676 109.839C142.633 109.839 142.588 109.834 142.544 109.821C142.278 109.748 142.121 109.473 142.193 109.207C142.371 108.554 142.531 107.897 142.67 107.236C142.726 106.965 142.997 106.793 143.262 106.849C143.533 106.906 143.705 107.171 143.649 107.441C143.506 108.122 143.342 108.798 143.159 109.47C143.098 109.693 142.896 109.839 142.676 109.839ZM139.338 117.839C139.253 117.839 139.167 117.818 139.088 117.772C138.849 117.634 138.767 117.328 138.905 117.089C140.002 115.19 140.907 113.201 141.596 111.178C141.686 110.916 141.97 110.775 142.231 110.866C142.493 110.955 142.632 111.239 142.544 111.5C141.833 113.585 140.9 115.634 139.771 117.589C139.679 117.75 139.51 117.839 139.338 117.839Z" fill="#1f212b" fill-rule="nonzero" opacity="1" stroke="none" vectornator:layerName="path"/>
<path d="M94.8932 100.339C92.684 100.339 90.8932 102.129 90.8932 104.339C90.8932 106.548 92.684 108.339 94.8932 108.339C97.1023 108.339 98.8932 106.548 98.8932 104.339C98.8932 102.129 97.1023 100.339 94.8932 100.339ZM108.893 84.3386C105.579 84.3386 102.893 87.0249 102.893 90.3386C102.893 93.6523 105.579 96.3386 108.893 96.3386C112.207 96.3386 114.893 93.6523 114.893 90.3386C114.893 87.0249 112.207 84.3386 108.893 84.3386ZM118.893 111.339C115.579 111.339 112.893 114.025 112.893 117.339C112.893 120.652 115.579 123.339 118.893 123.339C122.207 123.339 124.893 120.652 124.893 117.339C124.893 114.025 122.207 111.339 118.893 111.339Z" fill="#f9e65c" fill-rule="nonzero" opacity="1" stroke="none" vectornator:layerName="path"/>
<path d="M118.893 123.839C115.309 123.839 112.393 120.923 112.393 117.339C112.393 113.755 115.309 110.839 118.893 110.839C122.477 110.839 125.393 113.755 125.393 117.339C125.393 120.923 122.477 123.839 118.893 123.839ZM118.893 111.839C115.861 111.839 113.393 114.306 113.393 117.339C113.393 120.372 115.861 122.839 118.893 122.839C121.925 122.839 124.393 120.372 124.393 117.339C124.393 114.306 121.925 111.839 118.893 111.839ZM94.8932 108.839C92.4122 108.839 90.3932 106.82 90.3932 104.339C90.3932 101.858 92.4122 99.8386 94.8932 99.8386C97.3742 99.8386 99.3932 101.858 99.3932 104.339C99.3932 106.82 97.3742 108.839 94.8932 108.839ZM94.8932 100.839C92.9632 100.839 91.3932 102.409 91.3932 104.339C91.3932 106.269 92.9632 107.839 94.8932 107.839C96.8232 107.839 98.3932 106.269 98.3932 104.339C98.3932 102.409 96.8232 100.839 94.8932 100.839ZM108.893 96.8386C105.309 96.8386 102.393 93.9226 102.393 90.3386C102.393 86.7546 105.309 83.8386 108.893 83.8386C112.477 83.8386 115.393 86.7546 115.393 90.3386C115.393 93.9226 112.477 96.8386 108.893 96.8386ZM108.893 84.8386C105.861 84.8386 103.393 87.3056 103.393 90.3386C103.393 93.3716 105.861 95.8386 108.893 95.8386C111.925 95.8386 114.393 93.3716 114.393 90.3386C114.393 87.3056 111.925 84.8386 108.893 84.8386Z" fill="#1f212b" fill-rule="nonzero" opacity="1" stroke="none" vectornator:layerName="path"/>
<path d="M108.893 96.3386C109.595 96.3386 110.267 96.2116 110.893 95.9896C108.564 95.1646 106.893 92.9496 106.893 90.3386C106.893 87.7276 108.564 85.5116 110.893 84.6876C110.267 84.4656 109.595 84.3386 108.893 84.3386C105.579 84.3386 102.893 87.0246 102.893 90.3386C102.893 93.6526 105.579 96.3386 108.893 96.3386ZM118.893 123.339C119.595 123.339 120.267 123.212 120.893 122.99C118.564 122.165 116.893 119.95 116.893 117.339C116.893 114.728 118.564 112.512 120.893 111.688C120.267 111.466 119.595 111.339 118.893 111.339C115.579 111.339 112.893 114.025 112.893 117.339C112.893 120.653 115.579 123.339 118.893 123.339ZM94.8932 108.339C95.4242 108.339 95.9292 108.23 96.3932 108.042C94.9282 107.448 93.8932 106.016 93.8932 104.339C93.8932 102.661 94.9282 101.23 96.3932 100.636C95.9292 100.448 95.4242 100.339 94.8932 100.339C92.6842 100.339 90.8932 102.13 90.8932 104.339C90.8932 106.548 92.6842 108.339 94.8932 108.339Z" fill="#ceb743" fill-rule="nonzero" opacity="1" stroke="none" vectornator:layerName="path"/>
<path d="M108.893 96.8386C105.309 96.8386 102.393 93.9226 102.393 90.3386C102.393 86.7546 105.309 83.8386 108.893 83.8386C109.622 83.8386 110.352 83.9656 111.06 84.2156C111.259 84.2866 111.393 84.4756 111.393 84.6876C111.393 84.8996 111.259 85.0876 111.06 85.1586C108.867 85.9356 107.393 88.0166 107.393 90.3386C107.393 92.6606 108.867 94.7416 111.06 95.5186C111.259 95.5896 111.393 95.7776 111.393 95.9896C111.393 96.2016 111.259 96.3906 111.06 96.4606C110.352 96.7116 109.622 96.8386 108.893 96.8386ZM108.893 84.8386C105.861 84.8386 103.393 87.3056 103.393 90.3386C103.393 93.3716 105.861 95.8386 108.893 95.8386C109.062 95.8386 109.232 95.8306 109.401 95.8146C107.558 94.6386 106.393 92.5836 106.393 90.3386C106.393 88.0936 107.558 86.0386 109.401 84.8626C109.232 84.8466 109.062 84.8386 108.893 84.8386ZM118.893 123.839C115.309 123.839 112.393 120.923 112.393 117.339C112.393 113.755 115.309 110.839 118.893 110.839C119.622 110.839 120.352 110.966 121.06 111.216C121.259 111.287 121.393 111.476 121.393 111.688C121.393 111.9 121.259 112.088 121.06 112.159C118.867 112.936 117.393 115.017 117.393 117.339C117.393 119.661 118.867 121.742 121.06 122.519C121.259 122.59 121.393 122.778 121.393 122.99C121.393 123.202 121.259 123.391 121.06 123.461C120.352 123.712 119.622 123.839 118.893 123.839ZM118.893 111.839C115.861 111.839 113.393 114.306 113.393 117.339C113.393 120.372 115.861 122.839 118.893 122.839C119.062 122.839 119.232 122.831 119.401 122.815C117.558 121.639 116.393 119.584 116.393 117.339C116.393 115.094 117.558 113.039 119.401 111.863C119.232 111.847 119.062 111.839 118.893 111.839ZM94.8932 108.839C92.4122 108.839 90.3932 106.82 90.3932 104.339C90.3932 101.858 92.4122 99.8386 94.8932 99.8386C95.4682 99.8386 96.0372 99.9506 96.5812 100.172C96.7692 100.249 96.8932 100.432 96.8932 100.635C96.8932 100.839 96.7692 101.022 96.5802 101.098C95.2512 101.638 94.3932 102.91 94.3932 104.339C94.3932 105.768 95.2512 107.04 96.5812 107.579C96.7692 107.655 96.8932 107.839 96.8932 108.042C96.8932 108.245 96.7702 108.429 96.5812 108.505C96.0372 108.727 95.4682 108.839 94.8932 108.839ZM94.8932 100.839C92.9632 100.839 91.3932 102.409 91.3932 104.339C91.3932 106.325 93.1092 107.928 95.0622 107.835C94.0212 106.997 93.3932 105.726 93.3932 104.339C93.3932 102.952 94.0212 101.681 95.0622 100.843C95.0062 100.84 94.9502 100.839 94.8932 100.839Z" fill="#1f212b" fill-rule="nonzero" opacity="1" stroke="none" vectornator:layerName="path"/>
</g>
<g opacity="1" vectornator:layerName="Sun Star">
<path d="M145.741 499.519L151.393 491.983L145.741 484.448L149.251 475.704L141.841 469.886L142.964 460.532L134.299 456.83L132.966 447.505L123.641 446.171L119.942 437.51L110.588 438.636L104.77 431.226L96.0264 434.736L88.4907 429.081L80.955 434.733L72.2115 431.223L66.393 438.632L57.0394 437.51L53.3376 446.174L44.0123 447.505L42.6788 456.83L34.0171 460.532L35.1431 469.886L27.7332 475.704L31.2431 484.448L25.5882 491.983L31.24 499.519L27.73 508.262L35.1399 514.081L34.0171 523.434L42.6819 527.136L44.0155 536.462L53.3408 537.795L57.0394 546.457L66.393 545.331L72.2115 552.741L80.955 549.231L88.4907 554.886L96.0264 549.234L104.77 552.744L110.588 545.334L119.942 546.457L123.644 537.792L132.969 536.458L134.303 527.133L142.964 523.434L141.838 514.081L149.248 508.262L145.741 499.519Z" fill="#ff6f00" fill-rule="nonzero" opacity="1" stroke="none" vectornator:layerName="path"/>
<path d="M88.4907 438.516C58.9616 438.516 35.0236 462.454 35.0236 491.983C35.0236 521.512 58.9616 545.45 88.4907 545.45C118.02 545.45 141.958 521.512 141.958 491.983C141.958 462.454 118.02 438.516 88.4907 438.516Z" fill="#ffca28" fill-rule="nonzero" opacity="1" stroke="none" vectornator:layerName="path"/>
<path d="M88.4907 444.806C62.4356 444.806 41.3138 465.928 41.3138 491.983C41.3138 518.038 62.4356 539.16 88.4907 539.16C114.546 539.16 135.668 518.038 135.668 491.983C135.668 465.928 114.546 444.806 88.4907 444.806Z" fill="#ffb300" fill-rule="nonzero" opacity="1" stroke="none" vectornator:layerName="path"/>
</g>
<g opacity="1" vectornator:layerName="Neptune Planet">
<path d="M761.739 537.115L658.376 537.115C672.664 548.213 690.563 554.886 710.057 554.886C729.552 554.886 747.451 548.213 761.739 537.115Z" fill="#1976d2" fill-rule="nonzero" opacity="1" stroke="none" vectornator:layerName="path"/>
<path d="M648.616 528.23C651.637 531.442 654.893 534.41 658.381 537.115L761.743 537.115C765.231 534.41 768.487 531.442 771.508 528.23L648.616 528.23Z" fill="#1565c0" fill-rule="nonzero" opacity="1" stroke="none" vectornator:layerName="path"/>
<path d="M710.057 532.673C710.057 530.22 708.067 528.23 705.615 528.23L648.616 528.23C651.637 531.442 654.893 534.41 658.381 537.115L705.615 537.115C708.067 537.115 710.057 535.125 710.057 532.673Z" fill="#64b5f6" fill-rule="nonzero" opacity="1" stroke="none" vectornator:layerName="path"/>
<path d="M635.714 510.459C639.215 516.959 643.596 522.894 648.616 528.23L771.499 528.23C776.515 522.894 780.895 516.959 784.4 510.459L635.714 510.459Z" fill="#1976d2" fill-rule="nonzero" opacity="1" stroke="none" vectornator:layerName="path"/>
<path d="M625.647 470.476C625.647 484.945 629.299 498.558 635.714 510.459L784.4 510.459C790.816 498.558 794.467 484.945 794.467 470.476C794.467 461.151 792.895 452.208 790.105 443.82L630.01 443.82C627.22 452.208 625.647 461.151 625.647 470.476Z" fill="#1e88e5" fill-rule="nonzero" opacity="1" stroke="none" vectornator:layerName="path"/>
<path d="M723.385 510.459L714.5 510.459C712.057 510.459 710.057 508.46 710.057 506.017L710.057 506.017C710.057 503.573 712.057 501.574 714.5 501.574L723.385 501.574C725.829 501.574 727.828 503.573 727.828 506.017L727.828 506.017C727.828 508.46 725.829 510.459 723.385 510.459ZM705.615 474.918L705.615 483.804L793.415 483.808C793.877 480.894 794.188 477.93 794.343 474.923L705.615 474.918Z" fill="#64b5f6" fill-rule="nonzero" opacity="1" stroke="none" vectornator:layerName="path"/>
<path d="M635.714 430.492C633.435 434.721 631.552 439.195 630.01 443.82L790.1 443.82C788.559 439.195 786.68 434.721 784.396 430.492L635.714 430.492Z" fill="#1976d2" fill-rule="nonzero" opacity="1" stroke="none" vectornator:layerName="path"/>
<path d="M784.4 430.492C780.9 423.992 776.519 418.057 771.499 412.721L648.616 412.721C643.6 418.057 639.22 423.992 635.714 430.492L784.4 430.492Z" fill="#1565c0" fill-rule="nonzero" opacity="1" stroke="none" vectornator:layerName="path"/>
<path d="M648.616 412.721L771.499 412.721C768.478 409.509 765.222 406.542 761.734 403.836L658.376 403.836C654.893 406.542 651.632 409.509 648.616 412.721Z" fill="#64b5f6" fill-rule="nonzero" opacity="1" stroke="none" vectornator:layerName="path"/>
<path d="M658.376 403.836L761.739 403.836C747.451 392.738 729.552 386.066 710.057 386.066C690.563 386.066 672.664 392.738 658.376 403.836Z" fill="#1976d2" fill-rule="nonzero" opacity="1" stroke="none" vectornator:layerName="path"/>
<path d="M705.615 466.033C688.44 466.033 674.516 472 674.516 479.361C674.516 486.722 688.44 492.689 705.615 492.689C722.79 492.689 736.713 486.722 736.713 479.361C736.713 472 722.79 466.033 705.615 466.033Z" fill="#1565c0" fill-rule="nonzero" opacity="1" stroke="none" vectornator:layerName="path"/>
<path d="M705.615 474.918C695.8 474.918 687.844 476.907 687.844 479.361C687.844 481.815 695.8 483.804 705.615 483.804C715.429 483.804 723.385 481.815 723.385 479.361C723.385 476.907 715.429 474.918 705.615 474.918Z" fill="#0d47a1" fill-rule="nonzero" opacity="1" stroke="none" vectornator:layerName="path"/>
</g>
<g opacity="1" vectornator:layerName="Venus Planet">
<path d="M506.801 130.635L441.633 130.635C450.641 137.631 461.926 141.839 474.217 141.839C486.507 141.839 497.793 137.631 506.801 130.635Z" fill="#ffcc80" fill-rule="nonzero" opacity="1" stroke="none" vectornator:layerName="path"/>
<path d="M432.972 122.232C435.524 125.357 438.445 128.158 441.635 130.635L506.804 130.635C509.994 128.158 512.915 125.357 515.467 122.232L432.972 122.232Z" fill="#ffb74d" fill-rule="nonzero" opacity="1" stroke="none" vectornator:layerName="path"/>
<path d="M425.994 111.027C427.868 115.055 430.193 118.828 432.969 122.232L515.461 122.232C518.237 118.828 520.562 115.055 522.436 111.027L425.994 111.027Z" fill="#ffe0b2" fill-rule="nonzero" opacity="1" stroke="none" vectornator:layerName="path"/>
<path d="M420.998 88.6194C420.998 96.6359 422.821 104.21 425.994 111.027L522.439 111.027C525.612 104.21 527.436 96.6359 527.436 88.6194C527.436 85.754 527.144 82.9614 526.71 80.2164L421.723 80.2164C421.289 82.9614 420.998 85.754 420.998 88.6194Z" fill="#ffa726" fill-rule="nonzero" opacity="1" stroke="none" vectornator:layerName="path"/>
<path d="M423.748 71.8134C422.846 74.522 422.182 77.3314 421.723 80.2164L526.708 80.2164C526.248 77.3314 525.584 74.522 524.682 71.8134L423.748 71.8134Z" fill="#ffe0b2" fill-rule="nonzero" opacity="1" stroke="none" vectornator:layerName="path"/>
<path d="M474.217 35.4003C457.576 35.4003 442.731 43.047 432.972 55.0073L474.217 57.8084L515.461 55.0073C505.703 43.047 490.857 35.4003 474.217 35.4003Z" fill="#ffcc80" fill-rule="nonzero" opacity="1" stroke="none" vectornator:layerName="path"/>
<path d="M432.972 55.0073C428.941 59.9455 425.807 65.6316 423.751 71.8134L524.685 71.8134C522.626 65.6316 519.495 59.9455 515.464 55.0073L432.972 55.0073Z" fill="#ffb74d" fill-rule="nonzero" opacity="1" stroke="none" vectornator:layerName="path"/>
</g>
<g opacity="1" vectornator:layerName="Saturn Planet">
<path d="M129.025 338.468C131.202 338.822 133.421 339.055 135.7 339.055C158.555 339.055 177.081 320.529 177.081 297.674C177.081 295.481 176.861 293.345 176.532 291.245L129.025 338.468Z" fill="#bcaaa4" fill-rule="nonzero" opacity="1" stroke="none" vectornator:layerName="path"/>
<path d="M112.651 332.041C117.479 335.287 123.043 337.495 129.025 338.468C146.348 324.292 162.256 308.482 176.532 291.245C175.583 285.169 173.356 279.521 170.067 274.625L112.651 332.041Z" fill="#ffa726" fill-rule="nonzero" opacity="1" stroke="none" vectornator:layerName="path"/>
<path d="M158.356 263.067L101.082 320.31C104.121 324.939 108.058 328.955 112.653 332.041C133.972 315.215 153.243 295.944 170.069 274.625C166.979 270.032 162.985 266.106 158.356 263.067Z" fill="#ffb74d" fill-rule="nonzero" opacity="1" stroke="none" vectornator:layerName="path"/>
<path d="M177.075 297.072C164.317 312.222 150.237 326.292 135.087 339.05C135.284 339.052 135.501 339.055 135.7 339.055C138.522 339.055 141.279 338.768 143.942 338.23C155.402 328.169 166.192 317.379 176.256 305.919C176.794 303.253 177.081 300.498 177.081 297.674C177.081 297.478 177.078 297.266 177.075 297.072ZM121.581 302.831C128.254 296.658 134.683 290.228 140.857 283.556C146.95 276.963 152.782 270.125 158.356 263.07C156.92 262.128 155.351 261.264 153.796 260.504L98.5296 315.771C99.29 317.322 100.141 318.872 101.082 320.31C108.135 314.736 114.989 308.925 121.581 302.831Z" fill="#a1887f" fill-rule="nonzero" opacity="1" stroke="none" vectornator:layerName="path"/>
<path d="M117.911 299.182C124.587 292.998 131.024 286.561 137.208 279.886C142.978 273.642 148.492 267.161 153.796 260.504C150.525 258.908 147.025 257.716 143.34 257.028L95.0511 305.293C95.739 308.987 96.9313 312.494 98.5296 315.771C105.187 310.466 111.668 304.952 117.911 299.182Z" fill="#bcaaa4" fill-rule="nonzero" opacity="1" stroke="none" vectornator:layerName="path"/>
<path d="M143.34 257.028C140.862 256.565 138.315 256.293 135.7 256.293C135.095 256.293 133.908 256.384 133.908 256.384L94.4149 295.802C94.4149 295.802 94.3192 297.043 94.3192 297.674C94.3192 300.281 94.5881 302.821 95.0511 305.293C112.695 290.828 128.867 274.667 143.34 257.028Z" fill="#ffcc80" fill-rule="nonzero" opacity="1" stroke="none" vectornator:layerName="path"/>
<path d="M133.908 256.384C112.516 257.302 95.3718 274.421 94.4123 295.802C108.575 283.695 121.788 270.531 133.908 256.384Z" fill="#bcaaa4" fill-rule="nonzero" opacity="1" stroke="none" vectornator:layerName="path"/>
<path d="M188.667 244.707C184.325 240.364 170.286 246.825 152.86 260.062C155.053 261.07 157.169 262.234 159.137 263.595C164.39 259.888 167.979 258.192 169.019 259.232C171.577 261.789 157.585 279.924 137.769 299.741C117.953 319.557 99.815 333.549 97.2572 330.991C96.2227 329.956 97.9348 326.336 101.62 321.111C100.262 319.143 99.0909 317.02 98.0848 314.827C84.874 332.227 78.3953 346.304 82.7326 350.642C89.338 357.247 118.408 338.887 147.659 309.636C176.913 280.382 195.273 251.312 188.667 244.707Z" fill="#8d6e63" fill-rule="nonzero" opacity="1" stroke="none" vectornator:layerName="path"/>
</g>
<g opacity="1" vectornator:layerName="Uranus Planet">
<path d="M574.939 275.948C574.939 262.994 570.812 251.057 563.851 241.237L563.851 310.69C570.808 300.87 574.939 288.902 574.939 275.948Z" fill="#1565c0" fill-rule="nonzero" opacity="1" stroke="none" vectornator:layerName="path"/>
<path d="M563.848 310.69C565.216 287.568 565.219 264.359 563.848 241.237C561.67 238.173 559.249 235.3 556.553 232.694L556.553 319.202C559.249 316.597 561.67 313.754 563.848 310.69Z" fill="#01579b" fill-rule="nonzero" opacity="1" stroke="none" vectornator:layerName="path"/>
<path d="M556.586 319.172C558.677 290.391 558.677 261.503 556.586 232.721C553.349 229.587 549.75 226.841 545.873 224.493L545.873 327.404C549.75 325.052 553.349 322.31 556.586 319.172Z" fill="#0277bd" fill-rule="nonzero" opacity="1" stroke="none" vectornator:layerName="path"/>
<path d="M514.734 336.153C526.203 336.153 536.886 332.889 546.01 327.32C548.807 293.127 548.807 258.77 546.01 224.577C536.886 219.008 526.203 215.743 514.734 215.743C510.255 215.743 505.907 216.268 501.706 217.195L501.706 334.698C505.907 335.628 510.255 336.153 514.734 336.153Z" fill="#039be5" fill-rule="nonzero" opacity="1" stroke="none" vectornator:layerName="path"/>
<path d="M501.783 334.722C505.626 295.632 505.626 256.268 501.783 217.178C497.231 218.178 492.893 219.72 488.789 221.684L488.789 330.216C492.896 332.18 497.231 333.722 501.783 334.722Z" fill="#0288d1" fill-rule="nonzero" opacity="1" stroke="none" vectornator:layerName="path"/>
<path d="M488.852 330.243C492.15 294.12 492.15 257.776 488.852 221.653C485.458 223.276 482.247 225.196 479.24 227.396L479.24 324.5C482.247 326.701 485.458 328.621 488.852 330.243Z" fill="#4dd0e1" fill-rule="nonzero" opacity="1" stroke="none" vectornator:layerName="path"/>
<path d="M454.529 275.948C454.529 295.933 464.305 313.59 479.293 324.541C481.849 292.194 481.849 259.703 479.293 227.353C464.305 238.307 454.529 255.964 454.529 275.948Z" fill="#039be5" fill-rule="nonzero" opacity="1" stroke="none" vectornator:layerName="path"/>
<path d="M518.079 195.675C512.379 195.675 508.63 204.515 506.151 216.382C508.463 216.051 510.807 215.83 513.195 215.77C514.864 208.234 516.65 203.763 518.079 202.532C521.845 205.776 528.113 231.848 528.113 275.948C528.113 320.049 521.845 346.121 518.079 349.368C516.65 348.138 514.864 343.659 513.195 336.123C510.807 336.063 508.463 335.849 506.151 335.521C508.63 347.385 512.379 356.222 518.079 356.222C534.331 356.222 534.802 284.163 534.802 275.948C534.802 267.734 534.331 195.675 518.079 195.675Z" fill="#bdbdbd" fill-rule="nonzero" opacity="1" stroke="none" vectornator:layerName="path"/>
</g>
</g>
</svg>
